<svg viewBox="0 0 12 10" fill="none" xmlns="http://www.w3.org/2000/svg">
    <g filter="url(#filter0_d_915_259)">
        <path d="M3.46187 0.438711C3.3292 0.314511 3.15373 0.246896 2.97242 0.25011C2.79111 0.253323 2.61812 0.327116 2.4899 0.45594C2.36167 0.584765 2.28822 0.758564 2.28502 0.940721C2.28182 1.12288 2.34913 1.29917 2.47275 1.43246L5.01088 3.98246L2.47275 6.53246C2.40399 6.59683 2.34884 6.67446 2.31059 6.76071C2.27233 6.84696 2.25177 6.94006 2.25011 7.03447C2.24845 7.12888 2.26574 7.22266 2.30094 7.31021C2.33613 7.39776 2.38853 7.47729 2.45498 7.54406C2.52144 7.61083 2.6006 7.66346 2.68774 7.69883C2.77489 7.73419 2.86823 7.75156 2.9622 7.74989C3.05617 7.74823 3.14884 7.72756 3.23469 7.68913C3.32054 7.6507 3.3978 7.59529 3.46187 7.52621L6 4.97621L8.53813 7.52621C8.6022 7.59529 8.67946 7.6507 8.76531 7.68913C8.85116 7.72756 8.94383 7.74823 9.0378 7.74989C9.13177 7.75156 9.22511 7.73419 9.31226 7.69883C9.3994 7.66346 9.47856 7.61083 9.54502 7.54406C9.61147 7.47729 9.66386 7.39776 9.69906 7.31021C9.73426 7.22266 9.75155 7.12888 9.74989 7.03447C9.74823 6.94006 9.72766 6.84696 9.68941 6.76071C9.65116 6.67446 9.59601 6.59683 9.52725 6.53246L6.98912 3.98246L9.52725 1.43246C9.65087 1.29917 9.71817 1.12288 9.71498 0.940721C9.71178 0.758564 9.63833 0.584765 9.5101 0.45594C9.38188 0.327116 9.20889 0.253323 9.02758 0.25011C8.84627 0.246896 8.6708 0.314511 8.53813 0.438711L6 2.98871L3.46187 0.438711Z" fill="white"/>
    </g>
    <defs>
        <filter id="filter0_d_915_259" x="-1.75" y="0.25" width="15.5" height="15.5" filterUnits="userSpaceOnUse" color-interpolation-filters="sRGB">
        <feFlood flood-opacity="0" result="BackgroundImageFix"/>
        <feColorMatrix in="SourceAlpha" type="matrix" values="0 0 0 0 0 0 0 0 0 0 0 0 0 0 0 0 0 0 127 0" result="hardAlpha"/>
        <feOffset dy="4"/>
        <feGaussianBlur stdDeviation="2"/>
        <feComposite in2="hardAlpha" operator="out"/>
        <feColorMatrix type="matrix" values="0 0 0 0 0 0 0 0 0 0 0 0 0 0 0 0 0 0 0.25 0"/>
        <feBlend mode="normal" in2="BackgroundImageFix" result="effect1_dropShadow_915_259"/>
        <feBlend mode="normal" in="SourceGraphic" in2="effect1_dropShadow_915_259" result="shape"/>
        </filter>
    </defs>
</svg>